<mxfile host="app.diagrams.net" agent="Mozilla/5.0 (Windows NT 10.0; Win64; x64) AppleWebKit/537.36 (KHTML, like Gecko) Chrome/127.0.0.0 Safari/537.36 Edg/127.0.0.0" version="24.7.7">
  <diagram name="Page-1" id="3wGXhMFsOsy12RNU84ba">
    <mxGraphModel>
      <root>
        <mxCell id="0" />
        <mxCell id="1" parent="0" />
        <mxCell id="2" value="User" style="shape=table;startSize=25;container=1;collapsible=0;childLayout=tableLayout;fixedRows=1;rowLines=1;fontStyle=1;align=center;resizeLast=1;" vertex="1" parent="1">
          <mxGeometry x="305" y="20" width="100" height="216" as="geometry" />
        </mxCell>
        <mxCell id="3" style="shape=tableRow;horizontal=0;startSize=0;swimlaneHead=0;swimlaneBody=0;fillColor=none;collapsible=0;dropTarget=0;points=[[0,0.5],[1,0.5]];portConstraint=eastwest;top=0;left=0;right=0;bottom=0;" vertex="1" parent="2">
          <mxGeometry y="21" width="100" height="21" as="geometry" />
        </mxCell>
        <mxCell id="4" value="string" style="shape=partialRectangle;connectable=0;fillColor=none;top=0;left=0;bottom=0;right=0;align=left;spacingLeft=2;overflow=hidden;fontSize=11;" vertex="1" parent="3">
          <mxGeometry width="36" height="21" as="geometry" />
        </mxCell>
        <mxCell id="5" value="username" style="shape=partialRectangle;connectable=0;fillColor=none;top=0;left=0;bottom=0;right=0;align=left;spacingLeft=2;overflow=hidden;fontSize=11;" vertex="1" parent="3">
          <mxGeometry width="64" height="21" as="geometry" />
        </mxCell>
        <mxCell id="6" style="shape=tableRow;horizontal=0;startSize=0;swimlaneHead=0;swimlaneBody=0;fillColor=none;collapsible=0;dropTarget=0;points=[[0,0.5],[1,0.5]];portConstraint=eastwest;top=0;left=0;right=0;bottom=0;" vertex="1" parent="2">
          <mxGeometry y="42" width="100" height="21" as="geometry" />
        </mxCell>
        <mxCell id="7" value="string" style="shape=partialRectangle;connectable=0;fillColor=none;top=0;left=0;bottom=0;right=0;align=left;spacingLeft=2;overflow=hidden;fontSize=11;" vertex="1" parent="6">
          <mxGeometry width="36" height="21" as="geometry" />
        </mxCell>
        <mxCell id="8" value="email" style="shape=partialRectangle;connectable=0;fillColor=none;top=0;left=0;bottom=0;right=0;align=left;spacingLeft=2;overflow=hidden;fontSize=11;" vertex="1" parent="6">
          <mxGeometry width="64" height="21" as="geometry" />
        </mxCell>
        <mxCell id="9" style="shape=tableRow;horizontal=0;startSize=0;swimlaneHead=0;swimlaneBody=0;fillColor=none;collapsible=0;dropTarget=0;points=[[0,0.5],[1,0.5]];portConstraint=eastwest;top=0;left=0;right=0;bottom=0;" vertex="1" parent="2">
          <mxGeometry y="64" width="100" height="21" as="geometry" />
        </mxCell>
        <mxCell id="10" value="string" style="shape=partialRectangle;connectable=0;fillColor=none;top=0;left=0;bottom=0;right=0;align=left;spacingLeft=2;overflow=hidden;fontSize=11;" vertex="1" parent="9">
          <mxGeometry width="36" height="21" as="geometry" />
        </mxCell>
        <mxCell id="11" value="password" style="shape=partialRectangle;connectable=0;fillColor=none;top=0;left=0;bottom=0;right=0;align=left;spacingLeft=2;overflow=hidden;fontSize=11;" vertex="1" parent="9">
          <mxGeometry width="64" height="21" as="geometry" />
        </mxCell>
        <mxCell id="12" style="shape=tableRow;horizontal=0;startSize=0;swimlaneHead=0;swimlaneBody=0;fillColor=none;collapsible=0;dropTarget=0;points=[[0,0.5],[1,0.5]];portConstraint=eastwest;top=0;left=0;right=0;bottom=0;" vertex="1" parent="2">
          <mxGeometry y="85" width="100" height="21" as="geometry" />
        </mxCell>
        <mxCell id="13" value="string" style="shape=partialRectangle;connectable=0;fillColor=none;top=0;left=0;bottom=0;right=0;align=left;spacingLeft=2;overflow=hidden;fontSize=11;" vertex="1" parent="12">
          <mxGeometry width="36" height="21" as="geometry" />
        </mxCell>
        <mxCell id="14" value="role" style="shape=partialRectangle;connectable=0;fillColor=none;top=0;left=0;bottom=0;right=0;align=left;spacingLeft=2;overflow=hidden;fontSize=11;" vertex="1" parent="12">
          <mxGeometry width="64" height="21" as="geometry" />
        </mxCell>
        <mxCell id="15" style="shape=tableRow;horizontal=0;startSize=0;swimlaneHead=0;swimlaneBody=0;fillColor=none;collapsible=0;dropTarget=0;points=[[0,0.5],[1,0.5]];portConstraint=eastwest;top=0;left=0;right=0;bottom=0;" vertex="1" parent="2">
          <mxGeometry y="106" width="100" height="21" as="geometry" />
        </mxCell>
        <mxCell id="16" value="string" style="shape=partialRectangle;connectable=0;fillColor=none;top=0;left=0;bottom=0;right=0;align=left;spacingLeft=2;overflow=hidden;fontSize=11;" vertex="1" parent="15">
          <mxGeometry width="36" height="21" as="geometry" />
        </mxCell>
        <mxCell id="17" value="status" style="shape=partialRectangle;connectable=0;fillColor=none;top=0;left=0;bottom=0;right=0;align=left;spacingLeft=2;overflow=hidden;fontSize=11;" vertex="1" parent="15">
          <mxGeometry width="64" height="21" as="geometry" />
        </mxCell>
        <mxCell id="18" style="shape=tableRow;horizontal=0;startSize=0;swimlaneHead=0;swimlaneBody=0;fillColor=none;collapsible=0;dropTarget=0;points=[[0,0.5],[1,0.5]];portConstraint=eastwest;top=0;left=0;right=0;bottom=0;" vertex="1" parent="2">
          <mxGeometry y="127" width="100" height="21" as="geometry" />
        </mxCell>
        <mxCell id="19" value="date" style="shape=partialRectangle;connectable=0;fillColor=none;top=0;left=0;bottom=0;right=0;align=left;spacingLeft=2;overflow=hidden;fontSize=11;" vertex="1" parent="18">
          <mxGeometry width="36" height="21" as="geometry" />
        </mxCell>
        <mxCell id="20" value="last_login" style="shape=partialRectangle;connectable=0;fillColor=none;top=0;left=0;bottom=0;right=0;align=left;spacingLeft=2;overflow=hidden;fontSize=11;" vertex="1" parent="18">
          <mxGeometry width="64" height="21" as="geometry" />
        </mxCell>
        <mxCell id="21" style="shape=tableRow;horizontal=0;startSize=0;swimlaneHead=0;swimlaneBody=0;fillColor=none;collapsible=0;dropTarget=0;points=[[0,0.5],[1,0.5]];portConstraint=eastwest;top=0;left=0;right=0;bottom=0;" vertex="1" parent="2">
          <mxGeometry y="149" width="100" height="21" as="geometry" />
        </mxCell>
        <mxCell id="22" value="string" style="shape=partialRectangle;connectable=0;fillColor=none;top=0;left=0;bottom=0;right=0;align=left;spacingLeft=2;overflow=hidden;fontSize=11;" vertex="1" parent="21">
          <mxGeometry width="36" height="21" as="geometry" />
        </mxCell>
        <mxCell id="23" value="created_by" style="shape=partialRectangle;connectable=0;fillColor=none;top=0;left=0;bottom=0;right=0;align=left;spacingLeft=2;overflow=hidden;fontSize=11;" vertex="1" parent="21">
          <mxGeometry width="64" height="21" as="geometry" />
        </mxCell>
        <mxCell id="24" style="shape=tableRow;horizontal=0;startSize=0;swimlaneHead=0;swimlaneBody=0;fillColor=none;collapsible=0;dropTarget=0;points=[[0,0.5],[1,0.5]];portConstraint=eastwest;top=0;left=0;right=0;bottom=0;" vertex="1" parent="2">
          <mxGeometry y="170" width="100" height="21" as="geometry" />
        </mxCell>
        <mxCell id="25" value="date" style="shape=partialRectangle;connectable=0;fillColor=none;top=0;left=0;bottom=0;right=0;align=left;spacingLeft=2;overflow=hidden;fontSize=11;" vertex="1" parent="24">
          <mxGeometry width="36" height="21" as="geometry" />
        </mxCell>
        <mxCell id="26" value="created_at" style="shape=partialRectangle;connectable=0;fillColor=none;top=0;left=0;bottom=0;right=0;align=left;spacingLeft=2;overflow=hidden;fontSize=11;" vertex="1" parent="24">
          <mxGeometry width="64" height="21" as="geometry" />
        </mxCell>
        <mxCell id="27" style="shape=tableRow;horizontal=0;startSize=0;swimlaneHead=0;swimlaneBody=0;fillColor=none;collapsible=0;dropTarget=0;points=[[0,0.5],[1,0.5]];portConstraint=eastwest;top=0;left=0;right=0;bottom=0;" vertex="1" parent="2">
          <mxGeometry y="191" width="100" height="21" as="geometry" />
        </mxCell>
        <mxCell id="28" value="date" style="shape=partialRectangle;connectable=0;fillColor=none;top=0;left=0;bottom=0;right=0;align=left;spacingLeft=2;overflow=hidden;fontSize=11;" vertex="1" parent="27">
          <mxGeometry width="36" height="21" as="geometry" />
        </mxCell>
        <mxCell id="29" value="updated_at" style="shape=partialRectangle;connectable=0;fillColor=none;top=0;left=0;bottom=0;right=0;align=left;spacingLeft=2;overflow=hidden;fontSize=11;" vertex="1" parent="27">
          <mxGeometry width="64" height="21" as="geometry" />
        </mxCell>
        <mxCell id="30" value="Class" style="shape=table;startSize=25;container=1;collapsible=0;childLayout=tableLayout;fixedRows=1;rowLines=1;fontStyle=1;align=center;resizeLast=1;" vertex="1" parent="1">
          <mxGeometry x="53" y="31" width="100" height="195" as="geometry" />
        </mxCell>
        <mxCell id="31" style="shape=tableRow;horizontal=0;startSize=0;swimlaneHead=0;swimlaneBody=0;fillColor=none;collapsible=0;dropTarget=0;points=[[0,0.5],[1,0.5]];portConstraint=eastwest;top=0;left=0;right=0;bottom=0;" vertex="1" parent="30">
          <mxGeometry y="21" width="100" height="21" as="geometry" />
        </mxCell>
        <mxCell id="32" value="string" style="shape=partialRectangle;connectable=0;fillColor=none;top=0;left=0;bottom=0;right=0;align=left;spacingLeft=2;overflow=hidden;fontSize=11;" vertex="1" parent="31">
          <mxGeometry width="36" height="21" as="geometry" />
        </mxCell>
        <mxCell id="33" value="class_id" style="shape=partialRectangle;connectable=0;fillColor=none;top=0;left=0;bottom=0;right=0;align=left;spacingLeft=2;overflow=hidden;fontSize=11;" vertex="1" parent="31">
          <mxGeometry width="64" height="21" as="geometry" />
        </mxCell>
        <mxCell id="34" style="shape=tableRow;horizontal=0;startSize=0;swimlaneHead=0;swimlaneBody=0;fillColor=none;collapsible=0;dropTarget=0;points=[[0,0.5],[1,0.5]];portConstraint=eastwest;top=0;left=0;right=0;bottom=0;" vertex="1" parent="30">
          <mxGeometry y="42" width="100" height="21" as="geometry" />
        </mxCell>
        <mxCell id="35" value="string" style="shape=partialRectangle;connectable=0;fillColor=none;top=0;left=0;bottom=0;right=0;align=left;spacingLeft=2;overflow=hidden;fontSize=11;" vertex="1" parent="34">
          <mxGeometry width="36" height="21" as="geometry" />
        </mxCell>
        <mxCell id="36" value="class_name" style="shape=partialRectangle;connectable=0;fillColor=none;top=0;left=0;bottom=0;right=0;align=left;spacingLeft=2;overflow=hidden;fontSize=11;" vertex="1" parent="34">
          <mxGeometry width="64" height="21" as="geometry" />
        </mxCell>
        <mxCell id="37" style="shape=tableRow;horizontal=0;startSize=0;swimlaneHead=0;swimlaneBody=0;fillColor=none;collapsible=0;dropTarget=0;points=[[0,0.5],[1,0.5]];portConstraint=eastwest;top=0;left=0;right=0;bottom=0;" vertex="1" parent="30">
          <mxGeometry y="64" width="100" height="21" as="geometry" />
        </mxCell>
        <mxCell id="38" value="string" style="shape=partialRectangle;connectable=0;fillColor=none;top=0;left=0;bottom=0;right=0;align=left;spacingLeft=2;overflow=hidden;fontSize=11;" vertex="1" parent="37">
          <mxGeometry width="36" height="21" as="geometry" />
        </mxCell>
        <mxCell id="39" value="teacher_id" style="shape=partialRectangle;connectable=0;fillColor=none;top=0;left=0;bottom=0;right=0;align=left;spacingLeft=2;overflow=hidden;fontSize=11;" vertex="1" parent="37">
          <mxGeometry width="64" height="21" as="geometry" />
        </mxCell>
        <mxCell id="40" style="shape=tableRow;horizontal=0;startSize=0;swimlaneHead=0;swimlaneBody=0;fillColor=none;collapsible=0;dropTarget=0;points=[[0,0.5],[1,0.5]];portConstraint=eastwest;top=0;left=0;right=0;bottom=0;" vertex="1" parent="30">
          <mxGeometry y="85" width="100" height="21" as="geometry" />
        </mxCell>
        <mxCell id="41" value="date" style="shape=partialRectangle;connectable=0;fillColor=none;top=0;left=0;bottom=0;right=0;align=left;spacingLeft=2;overflow=hidden;fontSize=11;" vertex="1" parent="40">
          <mxGeometry width="36" height="21" as="geometry" />
        </mxCell>
        <mxCell id="42" value="start_date" style="shape=partialRectangle;connectable=0;fillColor=none;top=0;left=0;bottom=0;right=0;align=left;spacingLeft=2;overflow=hidden;fontSize=11;" vertex="1" parent="40">
          <mxGeometry width="64" height="21" as="geometry" />
        </mxCell>
        <mxCell id="43" style="shape=tableRow;horizontal=0;startSize=0;swimlaneHead=0;swimlaneBody=0;fillColor=none;collapsible=0;dropTarget=0;points=[[0,0.5],[1,0.5]];portConstraint=eastwest;top=0;left=0;right=0;bottom=0;" vertex="1" parent="30">
          <mxGeometry y="106" width="100" height="21" as="geometry" />
        </mxCell>
        <mxCell id="44" value="date" style="shape=partialRectangle;connectable=0;fillColor=none;top=0;left=0;bottom=0;right=0;align=left;spacingLeft=2;overflow=hidden;fontSize=11;" vertex="1" parent="43">
          <mxGeometry width="36" height="21" as="geometry" />
        </mxCell>
        <mxCell id="45" value="end_date" style="shape=partialRectangle;connectable=0;fillColor=none;top=0;left=0;bottom=0;right=0;align=left;spacingLeft=2;overflow=hidden;fontSize=11;" vertex="1" parent="43">
          <mxGeometry width="64" height="21" as="geometry" />
        </mxCell>
        <mxCell id="46" style="shape=tableRow;horizontal=0;startSize=0;swimlaneHead=0;swimlaneBody=0;fillColor=none;collapsible=0;dropTarget=0;points=[[0,0.5],[1,0.5]];portConstraint=eastwest;top=0;left=0;right=0;bottom=0;" vertex="1" parent="30">
          <mxGeometry y="127" width="100" height="21" as="geometry" />
        </mxCell>
        <mxCell id="47" value="string" style="shape=partialRectangle;connectable=0;fillColor=none;top=0;left=0;bottom=0;right=0;align=left;spacingLeft=2;overflow=hidden;fontSize=11;" vertex="1" parent="46">
          <mxGeometry width="36" height="21" as="geometry" />
        </mxCell>
        <mxCell id="48" value="created_by" style="shape=partialRectangle;connectable=0;fillColor=none;top=0;left=0;bottom=0;right=0;align=left;spacingLeft=2;overflow=hidden;fontSize=11;" vertex="1" parent="46">
          <mxGeometry width="64" height="21" as="geometry" />
        </mxCell>
        <mxCell id="49" style="shape=tableRow;horizontal=0;startSize=0;swimlaneHead=0;swimlaneBody=0;fillColor=none;collapsible=0;dropTarget=0;points=[[0,0.5],[1,0.5]];portConstraint=eastwest;top=0;left=0;right=0;bottom=0;" vertex="1" parent="30">
          <mxGeometry y="148" width="100" height="21" as="geometry" />
        </mxCell>
        <mxCell id="50" value="date" style="shape=partialRectangle;connectable=0;fillColor=none;top=0;left=0;bottom=0;right=0;align=left;spacingLeft=2;overflow=hidden;fontSize=11;" vertex="1" parent="49">
          <mxGeometry width="36" height="21" as="geometry" />
        </mxCell>
        <mxCell id="51" value="created_at" style="shape=partialRectangle;connectable=0;fillColor=none;top=0;left=0;bottom=0;right=0;align=left;spacingLeft=2;overflow=hidden;fontSize=11;" vertex="1" parent="49">
          <mxGeometry width="64" height="21" as="geometry" />
        </mxCell>
        <mxCell id="52" style="shape=tableRow;horizontal=0;startSize=0;swimlaneHead=0;swimlaneBody=0;fillColor=none;collapsible=0;dropTarget=0;points=[[0,0.5],[1,0.5]];portConstraint=eastwest;top=0;left=0;right=0;bottom=0;" vertex="1" parent="30">
          <mxGeometry y="170" width="100" height="21" as="geometry" />
        </mxCell>
        <mxCell id="53" value="date" style="shape=partialRectangle;connectable=0;fillColor=none;top=0;left=0;bottom=0;right=0;align=left;spacingLeft=2;overflow=hidden;fontSize=11;" vertex="1" parent="52">
          <mxGeometry width="36" height="21" as="geometry" />
        </mxCell>
        <mxCell id="54" value="updated_at" style="shape=partialRectangle;connectable=0;fillColor=none;top=0;left=0;bottom=0;right=0;align=left;spacingLeft=2;overflow=hidden;fontSize=11;" vertex="1" parent="52">
          <mxGeometry width="64" height="21" as="geometry" />
        </mxCell>
        <mxCell id="55" value="Enroll" style="shape=table;startSize=25;container=1;collapsible=0;childLayout=tableLayout;fixedRows=1;rowLines=1;fontStyle=1;align=center;resizeLast=1;" vertex="1" parent="1">
          <mxGeometry x="20" y="347" width="114" height="109" as="geometry" />
        </mxCell>
        <mxCell id="56" style="shape=tableRow;horizontal=0;startSize=0;swimlaneHead=0;swimlaneBody=0;fillColor=none;collapsible=0;dropTarget=0;points=[[0,0.5],[1,0.5]];portConstraint=eastwest;top=0;left=0;right=0;bottom=0;" vertex="1" parent="55">
          <mxGeometry y="21" width="110" height="21" as="geometry" />
        </mxCell>
        <mxCell id="57" value="string" style="shape=partialRectangle;connectable=0;fillColor=none;top=0;left=0;bottom=0;right=0;align=left;spacingLeft=2;overflow=hidden;fontSize=11;" vertex="1" parent="56">
          <mxGeometry width="36" height="21" as="geometry" />
        </mxCell>
        <mxCell id="58" value="enrollment_id" style="shape=partialRectangle;connectable=0;fillColor=none;top=0;left=0;bottom=0;right=0;align=left;spacingLeft=2;overflow=hidden;fontSize=11;" vertex="1" parent="56">
          <mxGeometry width="78" height="21" as="geometry" />
        </mxCell>
        <mxCell id="59" style="shape=tableRow;horizontal=0;startSize=0;swimlaneHead=0;swimlaneBody=0;fillColor=none;collapsible=0;dropTarget=0;points=[[0,0.5],[1,0.5]];portConstraint=eastwest;top=0;left=0;right=0;bottom=0;" vertex="1" parent="55">
          <mxGeometry y="42" width="110" height="21" as="geometry" />
        </mxCell>
        <mxCell id="60" value="string" style="shape=partialRectangle;connectable=0;fillColor=none;top=0;left=0;bottom=0;right=0;align=left;spacingLeft=2;overflow=hidden;fontSize=11;" vertex="1" parent="59">
          <mxGeometry width="36" height="21" as="geometry" />
        </mxCell>
        <mxCell id="61" value="user_id" style="shape=partialRectangle;connectable=0;fillColor=none;top=0;left=0;bottom=0;right=0;align=left;spacingLeft=2;overflow=hidden;fontSize=11;" vertex="1" parent="59">
          <mxGeometry width="78" height="21" as="geometry" />
        </mxCell>
        <mxCell id="62" style="shape=tableRow;horizontal=0;startSize=0;swimlaneHead=0;swimlaneBody=0;fillColor=none;collapsible=0;dropTarget=0;points=[[0,0.5],[1,0.5]];portConstraint=eastwest;top=0;left=0;right=0;bottom=0;" vertex="1" parent="55">
          <mxGeometry y="63" width="110" height="21" as="geometry" />
        </mxCell>
        <mxCell id="63" value="string" style="shape=partialRectangle;connectable=0;fillColor=none;top=0;left=0;bottom=0;right=0;align=left;spacingLeft=2;overflow=hidden;fontSize=11;" vertex="1" parent="62">
          <mxGeometry width="36" height="21" as="geometry" />
        </mxCell>
        <mxCell id="64" value="class_id" style="shape=partialRectangle;connectable=0;fillColor=none;top=0;left=0;bottom=0;right=0;align=left;spacingLeft=2;overflow=hidden;fontSize=11;" vertex="1" parent="62">
          <mxGeometry width="78" height="21" as="geometry" />
        </mxCell>
        <mxCell id="65" style="shape=tableRow;horizontal=0;startSize=0;swimlaneHead=0;swimlaneBody=0;fillColor=none;collapsible=0;dropTarget=0;points=[[0,0.5],[1,0.5]];portConstraint=eastwest;top=0;left=0;right=0;bottom=0;" vertex="1" parent="55">
          <mxGeometry y="84" width="110" height="21" as="geometry" />
        </mxCell>
        <mxCell id="66" value="date" style="shape=partialRectangle;connectable=0;fillColor=none;top=0;left=0;bottom=0;right=0;align=left;spacingLeft=2;overflow=hidden;fontSize=11;" vertex="1" parent="65">
          <mxGeometry width="36" height="21" as="geometry" />
        </mxCell>
        <mxCell id="67" value="enrolled_date" style="shape=partialRectangle;connectable=0;fillColor=none;top=0;left=0;bottom=0;right=0;align=left;spacingLeft=2;overflow=hidden;fontSize=11;" vertex="1" parent="65">
          <mxGeometry width="78" height="21" as="geometry" />
        </mxCell>
        <mxCell id="68" value="Post" style="shape=table;startSize=25;container=1;collapsible=0;childLayout=tableLayout;fixedRows=1;rowLines=1;fontStyle=1;align=center;resizeLast=1;" vertex="1" parent="1">
          <mxGeometry x="280" y="336" width="100" height="131" as="geometry" />
        </mxCell>
        <mxCell id="69" style="shape=tableRow;horizontal=0;startSize=0;swimlaneHead=0;swimlaneBody=0;fillColor=none;collapsible=0;dropTarget=0;points=[[0,0.5],[1,0.5]];portConstraint=eastwest;top=0;left=0;right=0;bottom=0;" vertex="1" parent="68">
          <mxGeometry y="21" width="100" height="21" as="geometry" />
        </mxCell>
        <mxCell id="70" value="string" style="shape=partialRectangle;connectable=0;fillColor=none;top=0;left=0;bottom=0;right=0;align=left;spacingLeft=2;overflow=hidden;fontSize=11;" vertex="1" parent="69">
          <mxGeometry width="36" height="21" as="geometry" />
        </mxCell>
        <mxCell id="71" value="post_id" style="shape=partialRectangle;connectable=0;fillColor=none;top=0;left=0;bottom=0;right=0;align=left;spacingLeft=2;overflow=hidden;fontSize=11;" vertex="1" parent="69">
          <mxGeometry width="64" height="21" as="geometry" />
        </mxCell>
        <mxCell id="72" style="shape=tableRow;horizontal=0;startSize=0;swimlaneHead=0;swimlaneBody=0;fillColor=none;collapsible=0;dropTarget=0;points=[[0,0.5],[1,0.5]];portConstraint=eastwest;top=0;left=0;right=0;bottom=0;" vertex="1" parent="68">
          <mxGeometry y="42" width="100" height="21" as="geometry" />
        </mxCell>
        <mxCell id="73" value="string" style="shape=partialRectangle;connectable=0;fillColor=none;top=0;left=0;bottom=0;right=0;align=left;spacingLeft=2;overflow=hidden;fontSize=11;" vertex="1" parent="72">
          <mxGeometry width="36" height="21" as="geometry" />
        </mxCell>
        <mxCell id="74" value="user_id" style="shape=partialRectangle;connectable=0;fillColor=none;top=0;left=0;bottom=0;right=0;align=left;spacingLeft=2;overflow=hidden;fontSize=11;" vertex="1" parent="72">
          <mxGeometry width="64" height="21" as="geometry" />
        </mxCell>
        <mxCell id="75" style="shape=tableRow;horizontal=0;startSize=0;swimlaneHead=0;swimlaneBody=0;fillColor=none;collapsible=0;dropTarget=0;points=[[0,0.5],[1,0.5]];portConstraint=eastwest;top=0;left=0;right=0;bottom=0;" vertex="1" parent="68">
          <mxGeometry y="63" width="100" height="21" as="geometry" />
        </mxCell>
        <mxCell id="76" value="string" style="shape=partialRectangle;connectable=0;fillColor=none;top=0;left=0;bottom=0;right=0;align=left;spacingLeft=2;overflow=hidden;fontSize=11;" vertex="1" parent="75">
          <mxGeometry width="36" height="21" as="geometry" />
        </mxCell>
        <mxCell id="77" value="class_id" style="shape=partialRectangle;connectable=0;fillColor=none;top=0;left=0;bottom=0;right=0;align=left;spacingLeft=2;overflow=hidden;fontSize=11;" vertex="1" parent="75">
          <mxGeometry width="64" height="21" as="geometry" />
        </mxCell>
        <mxCell id="78" style="shape=tableRow;horizontal=0;startSize=0;swimlaneHead=0;swimlaneBody=0;fillColor=none;collapsible=0;dropTarget=0;points=[[0,0.5],[1,0.5]];portConstraint=eastwest;top=0;left=0;right=0;bottom=0;" vertex="1" parent="68">
          <mxGeometry y="85" width="100" height="21" as="geometry" />
        </mxCell>
        <mxCell id="79" value="string" style="shape=partialRectangle;connectable=0;fillColor=none;top=0;left=0;bottom=0;right=0;align=left;spacingLeft=2;overflow=hidden;fontSize=11;" vertex="1" parent="78">
          <mxGeometry width="36" height="21" as="geometry" />
        </mxCell>
        <mxCell id="80" value="content" style="shape=partialRectangle;connectable=0;fillColor=none;top=0;left=0;bottom=0;right=0;align=left;spacingLeft=2;overflow=hidden;fontSize=11;" vertex="1" parent="78">
          <mxGeometry width="64" height="21" as="geometry" />
        </mxCell>
        <mxCell id="81" style="shape=tableRow;horizontal=0;startSize=0;swimlaneHead=0;swimlaneBody=0;fillColor=none;collapsible=0;dropTarget=0;points=[[0,0.5],[1,0.5]];portConstraint=eastwest;top=0;left=0;right=0;bottom=0;" vertex="1" parent="68">
          <mxGeometry y="106" width="100" height="21" as="geometry" />
        </mxCell>
        <mxCell id="82" value="date" style="shape=partialRectangle;connectable=0;fillColor=none;top=0;left=0;bottom=0;right=0;align=left;spacingLeft=2;overflow=hidden;fontSize=11;" vertex="1" parent="81">
          <mxGeometry width="36" height="21" as="geometry" />
        </mxCell>
        <mxCell id="83" value="post_date" style="shape=partialRectangle;connectable=0;fillColor=none;top=0;left=0;bottom=0;right=0;align=left;spacingLeft=2;overflow=hidden;fontSize=11;" vertex="1" parent="81">
          <mxGeometry width="64" height="21" as="geometry" />
        </mxCell>
        <mxCell id="84" value="Comment" style="shape=table;startSize=25;container=1;collapsible=0;childLayout=tableLayout;fixedRows=1;rowLines=1;fontStyle=1;align=center;resizeLast=1;" vertex="1" parent="1">
          <mxGeometry x="370" y="567" width="115" height="131" as="geometry" />
        </mxCell>
        <mxCell id="85" style="shape=tableRow;horizontal=0;startSize=0;swimlaneHead=0;swimlaneBody=0;fillColor=none;collapsible=0;dropTarget=0;points=[[0,0.5],[1,0.5]];portConstraint=eastwest;top=0;left=0;right=0;bottom=0;" vertex="1" parent="84">
          <mxGeometry y="21" width="115" height="21" as="geometry" />
        </mxCell>
        <mxCell id="86" value="string" style="shape=partialRectangle;connectable=0;fillColor=none;top=0;left=0;bottom=0;right=0;align=left;spacingLeft=2;overflow=hidden;fontSize=11;" vertex="1" parent="85">
          <mxGeometry width="36" height="21" as="geometry" />
        </mxCell>
        <mxCell id="87" value="comment_id" style="shape=partialRectangle;connectable=0;fillColor=none;top=0;left=0;bottom=0;right=0;align=left;spacingLeft=2;overflow=hidden;fontSize=11;" vertex="1" parent="85">
          <mxGeometry width="79" height="21" as="geometry" />
        </mxCell>
        <mxCell id="88" style="shape=tableRow;horizontal=0;startSize=0;swimlaneHead=0;swimlaneBody=0;fillColor=none;collapsible=0;dropTarget=0;points=[[0,0.5],[1,0.5]];portConstraint=eastwest;top=0;left=0;right=0;bottom=0;" vertex="1" parent="84">
          <mxGeometry y="42" width="115" height="21" as="geometry" />
        </mxCell>
        <mxCell id="89" value="string" style="shape=partialRectangle;connectable=0;fillColor=none;top=0;left=0;bottom=0;right=0;align=left;spacingLeft=2;overflow=hidden;fontSize=11;" vertex="1" parent="88">
          <mxGeometry width="36" height="21" as="geometry" />
        </mxCell>
        <mxCell id="90" value="user_id" style="shape=partialRectangle;connectable=0;fillColor=none;top=0;left=0;bottom=0;right=0;align=left;spacingLeft=2;overflow=hidden;fontSize=11;" vertex="1" parent="88">
          <mxGeometry width="79" height="21" as="geometry" />
        </mxCell>
        <mxCell id="91" style="shape=tableRow;horizontal=0;startSize=0;swimlaneHead=0;swimlaneBody=0;fillColor=none;collapsible=0;dropTarget=0;points=[[0,0.5],[1,0.5]];portConstraint=eastwest;top=0;left=0;right=0;bottom=0;" vertex="1" parent="84">
          <mxGeometry y="63" width="115" height="21" as="geometry" />
        </mxCell>
        <mxCell id="92" value="string" style="shape=partialRectangle;connectable=0;fillColor=none;top=0;left=0;bottom=0;right=0;align=left;spacingLeft=2;overflow=hidden;fontSize=11;" vertex="1" parent="91">
          <mxGeometry width="36" height="21" as="geometry" />
        </mxCell>
        <mxCell id="93" value="post_id" style="shape=partialRectangle;connectable=0;fillColor=none;top=0;left=0;bottom=0;right=0;align=left;spacingLeft=2;overflow=hidden;fontSize=11;" vertex="1" parent="91">
          <mxGeometry width="79" height="21" as="geometry" />
        </mxCell>
        <mxCell id="94" style="shape=tableRow;horizontal=0;startSize=0;swimlaneHead=0;swimlaneBody=0;fillColor=none;collapsible=0;dropTarget=0;points=[[0,0.5],[1,0.5]];portConstraint=eastwest;top=0;left=0;right=0;bottom=0;" vertex="1" parent="84">
          <mxGeometry y="85" width="115" height="21" as="geometry" />
        </mxCell>
        <mxCell id="95" value="string" style="shape=partialRectangle;connectable=0;fillColor=none;top=0;left=0;bottom=0;right=0;align=left;spacingLeft=2;overflow=hidden;fontSize=11;" vertex="1" parent="94">
          <mxGeometry width="36" height="21" as="geometry" />
        </mxCell>
        <mxCell id="96" value="content" style="shape=partialRectangle;connectable=0;fillColor=none;top=0;left=0;bottom=0;right=0;align=left;spacingLeft=2;overflow=hidden;fontSize=11;" vertex="1" parent="94">
          <mxGeometry width="79" height="21" as="geometry" />
        </mxCell>
        <mxCell id="97" style="shape=tableRow;horizontal=0;startSize=0;swimlaneHead=0;swimlaneBody=0;fillColor=none;collapsible=0;dropTarget=0;points=[[0,0.5],[1,0.5]];portConstraint=eastwest;top=0;left=0;right=0;bottom=0;" vertex="1" parent="84">
          <mxGeometry y="106" width="115" height="21" as="geometry" />
        </mxCell>
        <mxCell id="98" value="date" style="shape=partialRectangle;connectable=0;fillColor=none;top=0;left=0;bottom=0;right=0;align=left;spacingLeft=2;overflow=hidden;fontSize=11;" vertex="1" parent="97">
          <mxGeometry width="36" height="21" as="geometry" />
        </mxCell>
        <mxCell id="99" value="comment_date" style="shape=partialRectangle;connectable=0;fillColor=none;top=0;left=0;bottom=0;right=0;align=left;spacingLeft=2;overflow=hidden;fontSize=11;" vertex="1" parent="97">
          <mxGeometry width="79" height="21" as="geometry" />
        </mxCell>
        <mxCell id="100" value="enrolls" style="curved=1;startArrow=ERmandOne;startSize=10;;endArrow=ERmany;endSize=10;;exitX=0;exitY=0.68;entryX=0.81;entryY=0;" edge="1" parent="1" source="2" target="55">
          <mxGeometry relative="1" as="geometry">
            <Array as="points">
              <mxPoint x="153" y="286" />
            </Array>
          </mxGeometry>
        </mxCell>
        <mxCell id="101" value="creates" style="curved=1;startArrow=ERmandOne;startSize=10;;endArrow=ERmany;endSize=10;;exitX=0.5;exitY=1;entryX=0.64;entryY=0;" edge="1" parent="1" source="2" target="68">
          <mxGeometry relative="1" as="geometry">
            <Array as="points">
              <mxPoint x="355" y="286" />
            </Array>
          </mxGeometry>
        </mxCell>
        <mxCell id="102" value="comments" style="curved=1;startArrow=ERmandOne;startSize=10;;endArrow=ERmany;endSize=10;;exitX=1;exitY=0.79;entryX=0.76;entryY=0;" edge="1" parent="1" source="2" target="84">
          <mxGeometry relative="1" as="geometry">
            <Array as="points">
              <mxPoint x="480" y="286" />
              <mxPoint x="480" y="517" />
            </Array>
          </mxGeometry>
        </mxCell>
        <mxCell id="103" value="enrollments" style="curved=1;startArrow=ERmandOne;startSize=10;;endArrow=ERmany;endSize=10;;exitX=0.17;exitY=1;entryX=0.38;entryY=0;" edge="1" parent="1" source="30" target="55">
          <mxGeometry relative="1" as="geometry">
            <Array as="points">
              <mxPoint x="50" y="286" />
            </Array>
          </mxGeometry>
        </mxCell>
        <mxCell id="104" value="contains posts" style="curved=1;startArrow=ERmandOne;startSize=10;;endArrow=ERmany;endSize=10;;exitX=1;exitY=0.77;entryX=0.06;entryY=0;" edge="1" parent="1" source="30" target="68">
          <mxGeometry relative="1" as="geometry">
            <Array as="points">
              <mxPoint x="253" y="286" />
            </Array>
          </mxGeometry>
        </mxCell>
        <mxCell id="105" value="has" style="curved=1;startArrow=ERmandOne;startSize=10;;endArrow=ERmany;endSize=10;;exitX=0.5;exitY=1;entryX=0.02;entryY=0;" edge="1" parent="1" source="68" target="84">
          <mxGeometry relative="1" as="geometry">
            <Array as="points">
              <mxPoint x="330" y="517" />
            </Array>
          </mxGeometry>
        </mxCell>
      </root>
    </mxGraphModel>
  </diagram>
</mxfile>
